<svg width="21" height="20" viewBox="0 0 21 20" fill="none" xmlns="http://www.w3.org/2000/svg">
<path d="M15.4515 9.16667C15.4515 12.4344 12.8025 15.0833 9.53483 15.0833C6.26715 15.0833 3.61816 12.4344 3.61816 9.16667C3.61816 5.89898 6.26715 3.25 9.53483 3.25C12.8025 3.25 15.4515 5.89898 15.4515 9.16667Z" stroke="#C0C0D6" stroke-width="1.5"/>
<path d="M17.1481 17.5C16.9638 17.5 16.7794 17.4282 16.6463 17.295L14.7416 15.3888C14.4651 15.1121 14.4651 14.6611 14.7416 14.3742C15.0181 14.0974 15.4686 14.0974 15.7554 14.3742L17.6601 16.2804C17.9366 16.5571 17.9366 17.008 17.6601 17.295C17.5168 17.4282 17.3324 17.5 17.1481 17.5Z" fill="#C0C0D6"/>
</svg>
